<?xml version="1.0" encoding="UTF-8" standalone="no"?>
<!DOCTYPE svg PUBLIC "-//W3C//DTD SVG 1.1//EN" "http://www.w3.org/Graphics/SVG/1.1/DTD/svg11.dtd">
<svg width="100%" height="100%" viewBox="0 0 1920 1080" version="1.1" xmlns="http://www.w3.org/2000/svg" xmlns:xlink="http://www.w3.org/1999/xlink" xml:space="preserve" xmlns:serif="http://www.serif.com/" style="fill-rule:evenodd;clip-rule:evenodd;stroke-linejoin:round;stroke-miterlimit:2;">
    <g transform="matrix(1,0,0,1,-533.997,-5.41984)">
        <g transform="matrix(95,0,0,95,2386.83,893.268)">
        </g>
        <text x="574.425px" y="893.268px" style="font-family:'HiraginoSans-W5', 'Hiragino Sans', sans-serif;font-weight:500;font-size:95px;fill:rgb(37,34,23);">Dental Health Care &amp; Implant Centre</text>
    </g>
    <g transform="matrix(1,0,0,1,6.84656,-36.9375)">
        <path d="M1631.3,621.922L1790.73,624.004C1790.73,624.004 1797.89,626.503 1799.37,630.167C1799.37,630.167 1814.39,641.154 1792.67,655.941L1742.28,656.617C1742.28,656.617 1730.19,660.622 1726.3,672.461L1723.23,741.964L1721.82,749.956C1721.82,749.956 1710.38,770.989 1699.6,749.749L1698.42,743.438L1699.37,676.697C1699.37,676.697 1698.98,660.325 1705.28,655.691L1630.98,655.499C1630.98,655.499 1609.74,638.821 1628.95,622.75L1631.3,621.922Z" style="fill:rgb(0,122,249);"/>
        <path d="M1424.76,741.652C1424.76,741.652 1427.23,665.547 1427.04,665.587C1426.85,665.628 1433.94,628.705 1460.81,620.123L1569.69,620.885C1569.69,620.885 1598.28,630.918 1603.51,666.174C1603.51,666.174 1605.71,674.647 1606.16,693.043L1605.89,741.421C1605.89,741.421 1600.23,768.379 1582.64,751.842C1582.64,751.842 1578.06,748.879 1579.83,726.02L1579.3,670.107C1579.3,670.107 1576.2,653.303 1559.55,652.536L1465.79,652.459C1465.79,652.459 1451.48,653.661 1451.1,671.001L1451.02,742.928C1451.02,742.928 1445.65,761.889 1431.53,752.736L1425.73,748.139L1424.76,741.652Z" style="fill:rgb(0,122,249);"/>
        <path d="M1307.8,712.347C1307.8,712.347 1310.24,698.818 1322.5,698.467C1322.5,698.467 1331.62,697.984 1336.52,710.189C1336.52,710.189 1340.02,717.444 1336.4,728.05C1336.4,728.05 1330.56,738.104 1321.44,739.296C1321.44,739.296 1312.14,738.129 1308.11,728.659C1308.11,728.659 1306.28,723.927 1307.51,714.648L1307.8,712.347Z" style="fill:rgb(0,122,249);"/>
        <path d="M1240.76,726.443C1240.76,726.443 1281.88,657.797 1303.63,619.889C1303.63,619.889 1321.79,596.828 1343.27,620.03C1343.27,620.03 1376.73,677.638 1405.24,732.276C1405.24,732.276 1408.71,764.378 1385.76,752.258L1328.32,652.212C1328.32,652.212 1322.07,642.799 1315.7,652.282L1260.18,747.757C1260.18,747.757 1243.91,761.264 1239.64,733.844L1240.76,726.443Z" style="fill:rgb(0,122,249);"/>
        <path d="M1070.56,612.325L1207.61,614.256C1207.61,614.256 1221.26,613.966 1220.96,630.653C1220.96,630.653 1221.49,645.651 1209.26,645.459C1197.02,645.268 1076.47,644.93 1076.47,644.93C1076.47,644.93 1055.9,644.936 1058.01,678.626C1058.01,678.626 1058.13,704.516 1073.02,716.869L1077.27,717.441L1190.68,717.703C1190.68,717.703 1200.96,707.896 1190.98,698.812L1102.74,698.457C1102.74,698.457 1081.48,682.968 1102.71,665.043L1197.63,665.451C1197.63,665.451 1222.24,670.054 1221.24,709.475C1221.24,709.475 1222.53,736.641 1202.92,749.942L1072.56,748.921C1072.56,748.921 1036.89,744.955 1034.66,681.65C1034.66,681.65 1030.78,632.447 1062.93,613.64L1070.56,612.325Z" style="fill:rgb(0,122,249);"/>
        <path d="M876.618,659.834L990.639,661.913C990.639,661.913 1003.31,661.61 1003.71,678.382C1003.71,678.382 1004.37,693.241 992.486,695.558L874.696,691.803C874.696,691.803 865.937,688.101 866.607,675.407C866.607,675.407 864.705,663.316 874.047,660.729L876.618,659.834Z" style="fill:rgb(0,122,249);"/>
        <path d="M868.754,607.327L995.393,609.069C995.393,609.069 1024.95,617.33 1008.82,637.95C1008.82,637.95 1004.68,645.151 990.75,643.616C990.75,643.616 939.167,641.19 877.096,641.713C877.096,641.713 850.265,638.52 853.293,675.434C853.293,675.434 852.412,696.351 865.154,707.046C865.154,707.046 870.663,714.25 882.985,713.222L1000.17,714.53C1000.17,714.53 1012.56,712.182 1012.49,728.907C1012.49,728.907 1012.84,740.68 1002.08,746.777L957.172,746.532L867.687,745.654C867.687,745.654 848.618,742.004 840.297,721.128C840.297,721.128 818.309,682.635 839.319,630.499C839.319,630.499 846.576,613.576 861.157,608.374L868.754,607.327Z" style="fill:rgb(0,122,249);"/>
        <path d="M627.909,611.265L628.82,711.907C628.82,711.907 634.438,730.278 657.373,738.66L796.95,741.084C796.95,741.084 820.696,727.822 798.626,709.267L793.775,708.713L662.221,706.802C662.221,706.802 652.974,707.293 653.707,696.551L652.408,611.566C652.408,611.566 640.502,592.666 629.892,607.913L627.909,611.265Z" style="fill:rgb(0,122,249);"/>
        <path d="M475.453,650.746L590.003,651.777C590.003,651.777 612.66,667.672 593.782,684.352L476.801,683.39C476.801,683.39 452.811,674.677 468.833,654.389L475.453,650.746Z" style="fill:rgb(0,122,249);"/>
        <path d="M597.316,601.04C597.316,601.04 545.224,598.681 463.49,599.647C463.49,599.647 425.523,610.575 428.019,668.742C428.019,668.742 425.124,708.179 463.183,733.501L606.03,737.232C606.03,737.232 622.224,718.281 603.739,705.344L473.275,701.887C473.275,701.887 449.836,702.483 452.078,666.567C452.078,666.567 450.871,637.176 471.054,631.929L598.402,633.967C598.402,633.967 621.868,626.72 605.113,606.518L601.588,601.828L597.316,601.04Z" style="fill:rgb(0,122,249);"/>
        <path d="M657.653,324.331C657.653,324.331 650.906,350.903 679.19,365.072C679.19,365.072 747.532,399.026 755.604,400.374C755.604,400.374 817.288,430.27 821.978,432.038L853.804,446.988C853.804,446.988 867.617,452.803 870.79,459.347C870.79,459.347 875.73,462.241 874.167,467.771L868.921,468.558C868.921,468.558 843.762,455.582 808.652,438.318C808.652,438.318 777.407,421.057 728.292,402.648C728.292,402.648 703.067,393.016 667.573,375.56C667.573,375.56 623.996,352.986 642.607,322.048L659.03,319.852L657.653,324.331Z" style="fill:rgb(0,122,249);"/>
        <path d="M376.155,211.367L481.823,198.418C481.823,198.418 482.072,194.74 492.538,201.513C492.538,201.513 635.363,274.048 654.254,280.166C654.254,280.166 658.976,283 664.965,279.955C664.965,279.955 679.216,259.918 712.954,278.394L849.115,349.679C849.115,349.679 856.94,352.795 865.659,364.087L864.557,368.269C864.557,368.269 854.634,369.636 854.594,369.583C854.553,369.529 751.218,319.016 751.218,319.016L712.919,301.161C712.919,301.161 679.652,281.079 666.231,306.21L661.528,312.593L656.46,312.399L649.798,300.067C649.798,300.067 642.399,289.633 583.132,266.165C583.132,266.165 508.996,228.398 490.39,221.939C490.39,221.939 460.695,213.898 420.433,225.237C420.433,225.237 402.431,213.628 380.851,218.81L376.155,211.367Z" style="fill:rgb(0,122,249);"/>
        <path d="M233.862,473.585C233.862,473.585 99.111,436.363 93.31,319.342C93.31,319.342 77.387,220.852 165.447,177.744C165.447,177.744 243.993,119.527 345.96,185.475C345.96,185.475 396.785,212.9 416.974,293.75L413.839,296.851C413.839,296.851 373.352,207.388 298.454,184.657C223.556,161.926 166.146,204.215 166.146,204.215C166.146,204.215 133.254,229.422 120.252,267.294C120.252,267.294 94.387,332.571 145.974,396.791C145.974,396.791 192.758,449.413 236.357,468.602L233.862,473.585Z" style="fill:rgb(0,122,249);"/>
        <path d="M345.321,393.452C345.321,393.452 397.316,453.836 496.201,390.877C496.201,390.877 566.666,346.779 602.222,397.752L601.519,403.612C601.519,403.612 554.405,378.427 499.81,407.202C445.215,435.977 394.661,464.894 339.078,397.149L345.321,393.452Z" style="fill:rgb(0,122,249);"/>
        <path d="M380.847,786.554C380.847,786.554 341.733,774.931 347.036,713.685C347.036,713.685 351.83,660.529 303.245,561.466C303.245,561.466 289.444,534.275 264.983,489.847C264.983,489.847 240.017,434.878 259.89,385.179C259.89,385.179 289.332,299.782 398.219,328.507C398.219,328.507 429.891,335.955 461.576,364.234L464.55,366.496C464.55,366.496 486.905,346.635 524.351,336.062C561.797,325.489 610.294,335.361 642.26,363.989C674.225,392.617 701.766,458.103 631.666,534.831L627.857,534.298L626.25,528.402C626.25,528.402 676.999,456.648 636.615,392.441C596.23,328.233 512.158,360.89 512.158,360.89L484.291,376.981C484.291,376.981 463.379,391.732 446.13,400.748C428.882,409.763 430.317,406.924 418.009,404.407L419.027,398.687C419.027,398.687 433.966,395.836 442.795,387.601C442.795,387.601 452.828,380.863 457.912,374.428L452.415,369.274C452.415,369.274 427.809,352.918 401.752,346.777C375.695,340.635 345.245,335.139 312.263,352.19C279.28,369.241 272.195,392.448 268.233,418.81C264.271,445.172 278.883,489.434 290.913,506.946C290.913,506.946 316.297,557.347 333.547,595.82C350.797,634.293 359.229,678.53 359.229,678.53C359.229,678.53 362.385,695.689 360.564,724.411C360.564,724.411 358.468,765.232 381.357,783.941L380.847,786.554Z" style="fill:rgb(0,122,249);"/>
    </g>
</svg>
